<?xml version="1.0" encoding="UTF-8"?>
<svg xmlns="http://www.w3.org/2000/svg" version="1.1" width="300" height="300" viewBox="0 0 300 300"><rect x="0" y="0" width="300" height="300" fill="#ffffff"/><g transform="scale(12)"><g transform="translate(0,0)"><path fill-rule="evenodd" d="M8 0L8 1L10 1L10 0ZM14 0L14 1L15 1L15 0ZM16 0L16 3L14 3L14 2L11 2L11 4L10 4L10 3L9 3L9 2L8 2L8 5L9 5L9 6L8 6L8 7L9 7L9 8L8 8L8 10L6 10L6 11L5 11L5 9L4 9L4 8L0 8L0 9L1 9L1 12L0 12L0 13L2 13L2 10L3 10L3 9L4 9L4 11L3 11L3 14L1 14L1 15L0 15L0 16L1 16L1 15L2 15L2 16L3 16L3 17L4 17L4 16L5 16L5 17L7 17L7 16L8 16L8 18L10 18L10 17L12 17L12 18L13 18L13 17L14 17L14 16L16 16L16 19L15 19L15 18L14 18L14 23L13 23L13 20L12 20L12 21L11 21L11 20L10 20L10 23L9 23L9 21L8 21L8 25L9 25L9 24L10 24L10 23L12 23L12 25L14 25L14 23L16 23L16 22L17 22L17 25L18 25L18 24L19 24L19 25L20 25L20 24L19 24L19 21L20 21L20 23L21 23L21 24L22 24L22 25L25 25L25 24L23 24L23 23L24 23L24 22L25 22L25 20L24 20L24 19L25 19L25 17L24 17L24 18L23 18L23 16L24 16L24 14L25 14L25 13L24 13L24 12L25 12L25 11L24 11L24 10L23 10L23 8L20 8L20 9L19 9L19 11L21 11L21 12L20 12L20 13L19 13L19 12L14 12L14 11L15 11L15 10L14 10L14 9L15 9L15 8L14 8L14 9L13 9L13 8L12 8L12 9L11 9L11 11L13 11L13 13L12 13L12 16L11 16L11 15L10 15L10 14L11 14L11 13L10 13L10 12L9 12L9 11L8 11L8 10L10 10L10 9L9 9L9 8L10 8L10 7L11 7L11 6L10 6L10 5L12 5L12 4L14 4L14 5L13 5L13 6L12 6L12 7L13 7L13 6L14 6L14 7L15 7L15 6L14 6L14 5L16 5L16 10L17 10L17 9L18 9L18 8L17 8L17 4L16 4L16 3L17 3L17 0ZM9 6L9 7L10 7L10 6ZM6 8L6 9L7 9L7 8ZM24 8L24 9L25 9L25 8ZM12 9L12 10L13 10L13 11L14 11L14 10L13 10L13 9ZM20 9L20 10L21 10L21 11L22 11L22 9ZM6 11L6 12L4 12L4 14L3 14L3 15L4 15L4 14L7 14L7 13L8 13L8 12L7 12L7 11ZM6 12L6 13L7 13L7 12ZM13 13L13 14L14 14L14 13ZM17 13L17 14L15 14L15 15L17 15L17 14L18 14L18 15L19 15L19 14L18 14L18 13ZM8 14L8 15L9 15L9 16L10 16L10 15L9 15L9 14ZM21 14L21 19L22 19L22 22L23 22L23 19L22 19L22 16L23 16L23 14ZM6 15L6 16L7 16L7 15ZM13 15L13 16L12 16L12 17L13 17L13 16L14 16L14 15ZM17 17L17 20L20 20L20 17ZM18 18L18 19L19 19L19 18ZM15 20L15 22L16 22L16 20ZM17 21L17 22L18 22L18 21ZM0 0L0 7L7 7L7 0ZM1 1L1 6L6 6L6 1ZM2 2L2 5L5 5L5 2ZM18 0L18 7L25 7L25 0ZM19 1L19 6L24 6L24 1ZM20 2L20 5L23 5L23 2ZM0 18L0 25L7 25L7 18ZM1 19L1 24L6 24L6 19ZM2 20L2 23L5 23L5 20Z" fill="#000000"/></g></g></svg>
