<?xml version="1.0" encoding="UTF-8"?>
<svg id="Logos" xmlns="http://www.w3.org/2000/svg" viewBox="0 0 265.22 21.19">
  <defs>
    <style>
      .cls-1 {
        fill: #fff;
      }
    </style>
  </defs>
  <g>
    <path class="cls-1" d="M110,10.76c0,2.14,0,5.18,3.34,5.18s3.34-3.04,3.34-5.18V.44h1.45v11.38c0,4.23-2.23,5.34-4.79,5.34s-4.79-1.11-4.79-5.34V.44h1.45v10.32Z"/>
    <path class="cls-1" d="M122.47,16.85h-1.36V5.37h1.36v1.41h.05c.66-.95,1.54-1.64,2.77-1.64,2.84,0,3.14,2.11,3.14,3.61v8.09h-1.36v-8.02c0-1.34-.52-2.59-2.11-2.59-1.23,0-2.48.84-2.48,3.41v7.2Z"/>
    <path class="cls-1" d="M131.28,2.17V.44h1.68v1.73h-1.68ZM131.44,16.85V5.37h1.36v11.47h-1.36Z"/>
    <path class="cls-1" d="M139.23,15.12h.05l2.79-9.75h1.32l-3.41,11.47h-1.57l-3.41-11.47h1.48l2.75,9.75Z"/>
    <path class="cls-1" d="M146.18,11.39v.89c0,1.59.43,3.7,2.59,3.7,1.7,0,2.54-1.09,2.52-2.64h1.43c-.16,2.77-1.66,3.73-3.95,3.73-1.98,0-3.95-.8-3.95-4.27v-2.82c0-3.32,1.39-4.84,3.95-4.84,3.95,0,3.95,2.84,3.95,6.25h-6.54ZM151.36,10.3c0-2.54-.41-4.07-2.59-4.07s-2.59,1.52-2.59,4.07h5.18Z"/>
    <path class="cls-1" d="M156.65,6.92h.05c.57-1.09,1.77-1.77,3.16-1.77v1.39c-1.93-.16-3.2,1-3.2,2.93v7.38h-1.36V5.37h1.36v1.54Z"/>
    <path class="cls-1" d="M164.88,17.07c-2.48,0-3.45-1.2-3.43-3.64h1.39c0,1.57.36,2.61,2.11,2.61,1.32,0,1.95-.75,1.95-2.02,0-3-5.16-2.23-5.16-6.02,0-2.11,1.45-2.86,3.45-2.86,2.27,0,3,1.57,3,3.32h-1.34c-.07-1.45-.45-2.23-2-2.23-.98,0-1.75.64-1.75,1.66,0,2.86,5.16,2.09,5.16,5.93,0,2.16-1.25,3.25-3.38,3.25Z"/>
    <path class="cls-1" d="M170.76,2.17V.44h1.68v1.73h-1.68ZM170.92,16.85V5.37h1.36v11.47h-1.36Z"/>
    <path class="cls-1" d="M174.55,6.46v-1.09h1.84v-2.36l1.36-.59v2.95h2.32v1.09h-2.32v7.36c0,1.52.16,1.89,1.25,1.89.46,0,.77-.02,1.07-.07v1.18c-.41.04-.86.07-1.29.07-1.84,0-2.39-.82-2.39-2.23V6.46h-1.84Z"/>
    <path class="cls-1" d="M185.2,16.87l-3.63-11.5h1.48l2.79,9.41h.04l2.7-9.41h1.36l-4.75,15.81h-1.34l1.34-4.32Z"/>
    <path class="cls-1" d="M196.74,16.85V.44h1.45v15.18h5.43v1.23h-6.88Z"/>
    <path class="cls-1" d="M205.94,2.17V.44h1.68v1.73h-1.68ZM206.1,16.85V5.37h1.36v11.47h-1.36Z"/>
    <path class="cls-1" d="M210.39,16.85c.07-.39.14-.75.14-1.14V.44h1.36v6.23l.04.05c.7-1.09,1.61-1.57,2.91-1.57,3.73,0,3.43,3.91,3.43,5.95,0,2.52-.2,5.98-3.54,5.98-1.34,0-2.32-.55-2.89-1.61h-.04v1.39h-1.41ZM214.32,15.98c2.52,0,2.59-2.16,2.59-4.84s-.07-4.91-2.59-4.91c-2.2,0-2.48,2.98-2.48,4.7,0,1.82,0,5.04,2.48,5.04Z"/>
    <path class="cls-1" d="M222.09,6.92h.05c.57-1.09,1.77-1.77,3.16-1.77v1.39c-1.93-.16-3.2,1-3.2,2.93v7.38h-1.36V5.37h1.36v1.54Z"/>
    <path class="cls-1" d="M233.18,15.44h-.05c-.73,1.09-1.84,1.64-3.25,1.64-2.04,0-3.16-1.39-3.16-3.39,0-4.02,4.04-3.61,6.36-3.79v-.95c0-1.68-.5-2.7-2.32-2.7-1.25,0-2.25.61-2.25,1.98h-1.45c.11-2.2,1.82-3.07,3.82-3.07,1.16,0,3.57.11,3.57,3.04v5.77c0,.82,0,1.54.14,2.89h-1.41v-1.41ZM233.08,10.98c-1.95.07-4.91-.16-4.91,2.64,0,1.29.66,2.36,2.07,2.36,1.57,0,2.84-1.41,2.84-2.91v-2.09Z"/>
    <path class="cls-1" d="M238.72,6.92h.05c.57-1.09,1.77-1.77,3.16-1.77v1.39c-1.93-.16-3.2,1-3.2,2.93v7.38h-1.36V5.37h1.36v1.54Z"/>
    <path class="cls-1" d="M244.01,2.17V.44h1.68v1.73h-1.68ZM244.17,16.85V5.37h1.36v11.47h-1.36Z"/>
    <path class="cls-1" d="M249.62,11.39v.89c0,1.59.43,3.7,2.59,3.7,1.7,0,2.54-1.09,2.52-2.64h1.43c-.16,2.77-1.66,3.73-3.95,3.73-1.98,0-3.95-.8-3.95-4.27v-2.82c0-3.32,1.39-4.84,3.95-4.84,3.95,0,3.95,2.84,3.95,6.25h-6.54ZM254.8,10.3c0-2.54-.41-4.07-2.59-4.07s-2.59,1.52-2.59,4.07h5.18Z"/>
    <path class="cls-1" d="M261.84,17.07c-2.48,0-3.45-1.2-3.43-3.64h1.39c0,1.57.36,2.61,2.11,2.61,1.32,0,1.95-.75,1.95-2.02,0-3-5.16-2.23-5.16-6.02,0-2.11,1.45-2.86,3.45-2.86,2.27,0,3,1.57,3,3.32h-1.34c-.07-1.45-.45-2.23-2-2.23-.98,0-1.75.64-1.75,1.66,0,2.86,5.16,2.09,5.16,5.93,0,2.16-1.25,3.25-3.38,3.25Z"/>
  </g>
  <polygon class="cls-1" points="0 16.63 0 .27 4.62 .27 8.97 11.6 9.01 11.6 9.01 .27 12.21 .27 12.21 16.63 7.7 16.63 3.23 4.67 3.19 4.67 3.19 16.63 0 16.63"/>
  <path class="cls-1" d="M14.94,8.46C14.94,4.13,14.94,0,20.58,0,24.07,0,25.47,1.93,25.34,5.44h-3.36c0-2.17-.38-2.99-1.4-2.99-1.93,0-2.17,1.81-2.17,6.01s.25,6.01,2.17,6.01c1.59,0,1.52-2.04,1.56-3.33h3.38c0,4.37-1.75,5.78-4.94,5.78-5.64,0-5.64-4.17-5.64-8.45"/>
  <path class="cls-1" d="M37.17,16.91c-4.24,0-5.03-2.49-4.85-5.33h3.43c0,1.56.07,2.88,1.95,2.88,1.16,0,1.72-.75,1.72-1.86,0-2.95-6.89-3.13-6.89-8,0-2.56,1.23-4.6,5.39-4.6,3.33,0,4.98,1.49,4.75,4.91h-3.33c0-1.22-.2-2.46-1.58-2.46-1.11,0-1.77.61-1.77,1.74,0,3.1,6.89,2.84,6.89,7.98,0,4.23-3.1,4.74-5.71,4.74"/>
  <polygon class="cls-1" points="55.07 .27 55.07 2.99 51.26 2.99 51.26 16.63 47.85 16.63 47.85 2.99 44.04 2.99 44.04 .27 55.07 .27"/>
  <path class="cls-1" d="M54.05,16.63L58.58.27h4.5l4.44,16.36h-3.6l-.9-3.62h-4.67l-.93,3.62s-3.38,0-3.38,0ZM60.65,3.42h-.05l-1.56,7.07h3.26s-1.65-7.07-1.65-7.07Z"/>
  <polygon class="cls-1" points="77.51 .27 77.51 2.99 73.7 2.99 73.7 16.63 70.28 16.63 70.28 2.99 66.48 2.99 66.48 .27 77.51 .27"/>
  <polygon class="cls-1" points="79.1 16.63 79.1 .27 88.02 .27 88.02 2.79 82.52 2.79 82.52 6.83 87.59 6.83 87.59 9.34 82.52 9.34 82.52 14.12 88.21 14.12 88.21 16.63 79.1 16.63"/>
</svg>